<svg width="220" height="220" viewBox="0 0 220 220" fill="none" xmlns="http://www.w3.org/2000/svg">
<path d="M181.176 0H38.8235C17.3819 0 0 17.3819 0 38.8235V181.176C0 202.618 17.3819 220 38.8235 220H181.176C202.618 220 220 202.618 220 181.176V38.8235C220 17.3819 202.618 0 181.176 0Z" fill="white"/>
<path d="M176.18 43.4436V42.8354H175.999C174.705 38.1378 167.794 34.7213 154.75 32.1589C142.624 29.7648 126.564 28.4707 109.507 28.4707C92.451 28.4707 76.3521 29.7648 64.2651 32.1589C49.551 35.0448 42.7051 39.0307 42.7051 44.686V179.093C42.7051 179.523 42.8755 179.933 43.1789 180.237C43.4822 180.54 43.8937 180.711 44.3227 180.711H48.8651C49.2907 180.711 49.6989 180.541 49.9998 180.241C50.3008 179.939 50.4698 179.532 50.4698 179.106V142.353C51.5568 142.741 52.6568 143.104 53.7439 143.466C52.6385 146.739 52.0278 150.159 51.9321 153.612C51.9321 179.572 71.4863 205.855 108.873 205.855C147.063 205.855 167.031 179.895 167.031 154.246C166.917 150.522 166.227 146.837 164.986 143.324C166.28 142.948 167.406 142.586 168.416 142.262V178.99C168.42 179.413 168.589 179.818 168.891 180.115C169.191 180.414 169.597 180.581 170.02 180.581H174.563C174.992 180.581 175.403 180.41 175.707 180.108C176.01 179.804 176.18 179.393 176.18 178.964V45.9413C176.276 45.5167 176.324 45.0825 176.323 44.6472C176.319 44.242 176.271 43.8385 176.18 43.4436ZM109.507 36.2354C144.772 36.2354 164.469 41.5413 168.234 44.686C164.469 47.8825 144.772 53.1495 109.507 53.1495C74.2427 53.1495 54.5463 47.8825 50.8451 44.686C54.5463 41.5413 74.2427 36.2354 109.507 36.2354ZM56.4486 136.232C54.4427 135.585 52.4239 134.938 50.418 134.148V98.8189C58.3706 101.615 66.5317 103.779 74.8251 105.29C68.9802 113.276 63.7582 121.699 59.2051 130.486C58.2345 132.44 57.3157 134.355 56.5004 136.232H56.4486ZM108.873 199.294C85.0357 199.294 59.3733 185.059 59.3733 153.728C59.3733 149.846 60.6674 144.799 63.2557 138.833C64.1486 136.775 65.1839 134.601 66.3615 132.362C69.3151 126.722 72.5903 121.256 76.171 115.992C78.9663 111.799 82.0333 107.554 85.2298 103.465C86.9639 101.2 88.7239 99.0001 90.4839 96.8648C94.9826 91.2904 99.8694 86.0406 105.107 81.1542C106.186 80.3158 107.513 79.8606 108.88 79.8606C110.246 79.8606 111.573 80.3158 112.652 81.1542C117.827 85.9568 122.674 91.1017 127.159 96.5542C128.945 98.6636 130.744 100.877 132.53 103.167C139.741 112.207 146.202 121.82 151.851 131.91C153.067 134.161 154.164 136.352 155.138 138.484C157.894 144.553 159.59 150.027 159.59 154.298C159.59 183.765 134.083 199.294 108.873 199.294ZM168.403 134.174C166.902 134.679 164.766 135.365 162.087 136.128C161.22 134.226 160.289 132.246 159.253 130.331C154.473 121.485 149.021 113.018 142.947 105.005C151.561 103.498 160.065 101.418 168.403 98.7801V134.174ZM168.403 90.5884C158.3 93.8556 147.947 96.2966 137.447 97.8872L135.597 95.5836C130.163 88.771 124.26 82.3453 117.932 76.3531C115.382 74.2493 112.179 73.0987 108.873 73.0987C105.567 73.0987 102.365 74.2493 99.8145 76.3531C93.3883 82.3984 87.4391 88.9315 82.0204 95.8942C81.3992 96.6578 80.791 97.4472 80.1827 98.2236C70.0428 96.704 60.0861 94.1454 50.4698 90.5884V53.2531C54.9112 55.0717 59.5366 56.4037 64.2651 57.226C76.391 59.6072 92.4639 60.9142 109.559 60.9142C126.654 60.9142 142.676 59.6201 154.853 57.226C159.533 56.4168 164.113 55.1154 168.519 53.3436L168.403 90.5884Z" fill="#0F6B39"/>
<path d="M66.4014 164.688C81.0186 157.999 97.3127 155.87 113.158 158.58C129.412 164.171 153.78 161.621 153.78 161.621C147.452 191.865 111.631 193.638 111.631 193.638C74.2696 196.122 66.4014 164.688 66.4014 164.688Z" fill="url(#paint0_linear_42_2)"/>
<defs>
<linearGradient id="paint0_linear_42_2" x1="110.091" y1="157.428" x2="110.091" y2="193.78" gradientUnits="userSpaceOnUse">
<stop stop-color="#99BE22"/>
<stop offset="1" stop-color="#0D6B38"/>
</linearGradient>
</defs>
</svg>
