<svg width="64" height="64" viewBox="0 0 64 64" fill="none" xmlns="http://www.w3.org/2000/svg">
<rect width="64" height="64" rx="32" fill="#1EA56A"/>
<path d="M13.1437 49.0125C12.3937 49.2416 11.975 50.0375 12.2041 50.7854C12.4333 51.5354 13.2291 51.952 13.9771 51.725C19.5437 50.0125 24.2625 48.95 30.5812 48.95C37.1104 48.95 44.3771 49.9875 50.0229 51.725C50.775 51.9583 51.5666 51.5312 51.7958 50.7854C52.0271 50.0375 51.6062 49.2437 50.8562 49.0125C45.3625 47.3229 38.4166 46.2771 32 46.1395V31.9187C37.5437 31.8645 43.1312 31.3479 47.1083 27.9395C51.4958 24.1791 51.8583 18.9583 51.8583 13.4896C51.8583 12.7062 51.2229 12.0708 50.4396 12.0708C45.9125 12.0708 39.5396 12.9083 34.8896 16.8958C31.8666 19.4875 30.4312 22.8625 29.7541 25.6729C29.0771 24.4562 28.1979 23.2729 27.0583 22.225C23.0146 18.5229 17.4875 17.7437 13.5604 17.7437C12.7771 17.7437 12.1416 18.3791 12.1416 19.1625C12.1416 24.1896 12.4562 28.9916 16.25 32.4687C19.6687 35.602 24.4271 36.1125 29.1625 36.1708V46.1437C23.1979 46.2916 18.5354 47.3541 13.1437 49.0125ZM36.7354 19.05C40.2771 16.0125 45.1312 15.1041 49.0104 14.9396C48.9354 19.3 48.3958 23.1 45.2604 25.7854C42.0042 28.5791 37.0458 29.0354 32.0604 29.0875C32.2729 26.5687 33.175 22.1021 36.7354 19.05ZM18.1666 30.375C15.5375 27.9666 15.0625 24.5479 14.9896 20.6208C18.2291 20.7979 22.2187 21.6396 25.1396 24.3187C28.1104 27.0416 28.9 31.0208 29.1 33.3396C24.9541 33.2812 20.8541 32.8416 18.1666 30.375Z" fill="white"/>
</svg>
