<svg width="64" height="64" viewBox="0 0 64 64" fill="none" xmlns="http://www.w3.org/2000/svg">
<rect width="64" height="64" rx="32" fill="#1EA56A"/>
<path d="M43.3813 30.3978L32.823 12.4874C32.6459 12.1874 32.323 12.002 31.975 12.002C31.6271 12.002 31.3042 12.1874 31.1271 12.4874L20.5667 30.3999C19.0042 32.6978 18.1771 35.3853 18.1771 38.1749C18.1771 45.7978 24.3667 51.9978 31.975 51.9978C39.5834 51.9978 45.773 45.7978 45.773 38.1749C45.773 35.3832 44.9459 32.6936 43.3813 30.3978ZM31.975 50.0249C25.4542 50.0249 20.148 44.7082 20.148 38.1749C20.148 35.7728 20.8605 33.4582 22.2084 31.4895C22.223 31.4686 22.2375 31.4478 22.25 31.427L31.975 14.929L41.7 31.427C41.7105 31.4436 41.723 31.4624 41.7334 31.479L41.7355 31.4811L41.7375 31.4832C41.7375 31.4832 41.7375 31.4853 41.7396 31.4853C43.0896 33.4582 43.8021 35.7728 43.8021 38.1749C43.8021 44.7082 38.498 50.0249 31.975 50.0249Z" fill="white"/>
<path d="M30.6021 45.1123C27.5521 45.1123 25.0729 42.6269 25.0729 39.5727C25.0729 39.0269 24.6312 38.5852 24.0875 38.5852C23.5437 38.5852 23.1021 39.0269 23.1021 39.5727C23.1021 43.7144 26.4666 47.0852 30.6021 47.0852C31.1458 47.0852 31.5854 46.6435 31.5854 46.0977C31.5854 45.554 31.1458 45.1123 30.6021 45.1123Z" fill="white"/>
</svg>
