<svg width="64" height="64" viewBox="0 0 64 64" fill="none" xmlns="http://www.w3.org/2000/svg">
<rect width="64" height="64" rx="32" fill="#1EA56A"/>
<path d="M47.9977 31.2864L32.7048 15.9952C32.085 15.3825 31.235 15 30.3 15H18.4C16.5211 15 15 16.5211 15 18.4V30.3C15 31.2439 15.3825 32.0939 16.0023 32.7048L31.3023 48.0048C31.915 48.6175 32.765 49 33.7 49C34.635 49 35.4939 48.6175 36.1048 48.0048L48.0048 36.1048C48.6175 35.485 49 34.635 49 33.7C49 32.7561 48.6175 31.9061 47.9977 31.2864ZM20.95 23.5C19.5386 23.5 18.4 22.3614 18.4 20.95C18.4 19.5386 19.5386 18.4 20.95 18.4C22.3614 18.4 23.5 19.5386 23.5 20.95C23.5 22.3614 22.3614 23.5 20.95 23.5Z" fill="white"/>
</svg>
