<svg width="64" height="64" viewBox="0 0 64 64" fill="none" xmlns="http://www.w3.org/2000/svg">
<rect width="64" height="64" rx="32" fill="#1EA56A"/>
<path d="M33.2073 40.0496H16.2617C14.4883 40.0496 13.0099 41.4884 13.0099 43.3211V44.2137C13.0099 45.9989 14.4388 47.4853 16.2617 47.4853H33.1578C34.9311 47.4853 36.4096 46.0484 36.4096 44.2137V43.3211C36.4096 41.4884 34.9806 40.0496 33.2073 40.0496ZM18.5278 45.4032C17.6411 45.4032 16.9029 44.661 16.9029 43.7684C16.9029 42.8758 17.6411 42.1316 18.5278 42.1316C19.4145 42.1316 20.1527 42.8758 20.1527 43.7684C20.1527 44.661 19.4145 45.4032 18.5278 45.4032ZM24.7345 45.4032C23.8478 45.4032 23.1096 44.661 23.1096 43.7684C23.1096 42.8758 23.8478 42.1316 24.7345 42.1316C25.6211 42.1316 26.3594 42.8758 26.3594 43.7684C26.3594 44.661 25.6211 45.4032 24.7345 45.4032ZM30.9411 45.4032C30.0545 45.4032 29.3162 44.661 29.3162 43.7684C29.3162 42.8758 30.0545 42.1316 30.9411 42.1316C31.8278 42.1316 32.566 42.8758 32.566 43.7684C32.6155 44.661 31.8773 45.4032 30.9411 45.4032Z" fill="white"/>
<path d="M50.7426 30.4838C50.7426 29.9395 50.3983 29.4922 49.9055 29.3438L45.9649 19.2817C46.0144 19.1333 46.0144 18.9354 46.0144 18.7374C46.0144 17.5974 45.0783 16.7048 43.9937 16.7048C42.8616 16.7048 41.9749 17.6469 41.9749 18.7374C41.9749 19.0343 42.0244 19.3312 42.1729 19.5806L34.7826 31.3269L33.8465 23.5943C33.6011 21.3638 30.7926 21.2648 30.7926 21.2648H25.3737C23.7488 21.2648 23.06 23.5943 23.06 23.5943L19.9072 30.9291H17.837V29.4428C17.837 29.1459 17.5916 28.948 17.3462 28.948C17.0493 28.948 16.8534 29.1954 16.8534 29.4428V30.9291H16.1132C13.75 30.9291 13.7995 32.9122 13.7995 32.9122V37.1754L15.6698 39.0595H34.8816L43.8472 21.2648L48.4765 30.2859C48.4765 30.3848 48.427 30.4343 48.427 30.5333C48.427 30.8796 48.5755 31.1785 48.8229 31.3764L41.5811 34.7964C42.7132 36.928 45.3237 37.9195 47.6393 36.928C49.856 35.9859 50.99 33.6069 50.4478 31.3764C50.5467 31.1785 50.7426 30.8796 50.7426 30.4838ZM25.4232 30.6322L25.72 23.2974C25.72 22.4048 27.3944 22.3554 27.3944 22.3554H30.2998C32.2216 22.3554 32.4195 24.0891 32.4195 24.0891L33.1083 30.5828H25.4232V30.6322ZM43.9937 20.0259C43.2555 20.0259 42.6637 19.4301 42.6637 18.688C42.6637 17.9438 43.2555 17.35 43.9937 17.35C44.7339 17.35 45.3237 17.9438 45.3237 18.688C45.3237 19.4301 44.6844 20.0259 43.9937 20.0259ZM50.1034 30.7807C50.0044 31.03 49.8065 31.1785 49.5116 31.1785C49.4126 31.1785 49.3632 31.1785 49.2662 31.129C49.0188 31.03 48.8704 30.7807 48.8704 30.5333C48.8704 30.1869 49.1672 29.89 49.5116 29.89C49.856 29.89 50.1529 30.1869 50.1529 30.5333C50.1529 30.5828 50.1529 30.6817 50.1034 30.7807Z" fill="white"/>
</svg>
