<svg width="64" height="64" viewBox="0 0 64 64" fill="none" xmlns="http://www.w3.org/2000/svg">
<rect width="64" height="64" rx="32" fill="#1EA56A"/>
<g clip-path="url(#clip0_2_3750)">
<path d="M18.4082 13.9871C17.9751 13.9965 17.6301 14.3508 17.6357 14.7802V24.1515C17.6319 24.4327 17.7801 24.6952 18.0238 24.8377C18.2694 24.9783 18.5694 24.9783 18.8151 24.8377C19.0607 24.6952 19.2069 24.4327 19.2051 24.1515H26.8926C27.3988 24.1515 27.8338 24.5846 27.8338 25.089V31.1808C27.5507 31.1771 27.2882 31.3233 27.1438 31.5671C27.0032 31.8108 27.0032 32.1108 27.1438 32.3546C27.2882 32.5983 27.5507 32.7446 27.8338 32.7427V38.8346C27.8338 44.4915 32.5026 49.1415 38.1876 49.1415H45.8751C45.8732 49.4227 46.0194 49.6833 46.2651 49.8277C46.5107 49.9683 46.8107 49.9683 47.0563 49.8277C47.3001 49.6833 47.4482 49.4227 47.4444 49.1415V39.7702C47.4482 39.5602 47.3657 39.3558 47.2157 39.2058C47.0638 39.0558 46.8594 38.9733 46.6476 38.9771C46.2163 38.9865 45.8694 39.3408 45.8751 39.7702H38.1876C37.6813 39.7702 37.2463 39.3371 37.2463 38.8346V32.7427C37.5294 32.7446 37.7919 32.5983 37.9363 32.3546C38.0769 32.1108 38.0769 31.8108 37.9363 31.5671C37.7919 31.3233 37.5294 31.1771 37.2463 31.1808V25.089C37.2463 19.4302 32.5776 14.7802 26.8926 14.7802H19.2051C19.2069 14.5702 19.1244 14.3658 18.9744 14.2177C18.8244 14.0677 18.6182 13.9852 18.4082 13.9871ZM19.2051 16.3421H26.8926C31.7188 16.3421 35.6788 20.2833 35.6788 25.089V31.1808H29.4013V25.089C29.4013 23.7183 28.2688 22.5896 26.8926 22.5896H19.2051V16.3421ZM29.4013 32.7427H35.6788V38.8346C35.6788 40.2033 36.8113 41.3321 38.1876 41.3321H45.8751V47.5796H38.1876C33.3613 47.5796 29.4013 43.6383 29.4013 38.8346V32.7427Z" fill="white"/>
</g>
<defs>
<clipPath id="clip0_2_3750">
<rect width="36" height="36" fill="white" transform="translate(14 14)"/>
</clipPath>
</defs>
</svg>
