<svg width="33" height="33" viewBox="0 0 33 33" fill="none" xmlns="http://www.w3.org/2000/svg">
<circle cx="16.5" cy="16.5" r="16.5" fill="#1EA56A"/>
<path d="M8.03091 16.4817C8.03076 16.3645 8.05373 16.2484 8.09851 16.1402C8.14328 16.0319 8.20898 15.9335 8.29185 15.8506C8.37471 15.7678 8.4731 15.702 8.58139 15.6573C8.68968 15.6125 8.80574 15.5895 8.92292 15.5897L15.5916 15.5909L15.5903 8.92225C15.5903 8.80511 15.6134 8.68912 15.6582 8.58089C15.7031 8.47267 15.7688 8.37434 15.8516 8.2915C15.9344 8.20867 16.0328 8.14297 16.141 8.09814C16.2492 8.05331 16.3652 8.03024 16.4824 8.03024C16.5995 8.03024 16.7155 8.05331 16.8237 8.09814C16.9319 8.14297 17.0303 8.20867 17.1131 8.29151C17.1959 8.37434 17.2616 8.47267 17.3065 8.58089C17.3513 8.68912 17.3744 8.80511 17.3744 8.92225L17.3731 15.5909L24.0418 15.5897C24.1589 15.5897 24.2749 15.6127 24.3832 15.6576C24.4914 15.7024 24.5897 15.7681 24.6725 15.8509C24.7554 15.9338 24.8211 16.0321 24.8659 16.1403C24.9107 16.2486 24.9338 16.3645 24.9338 16.4817C24.9338 16.5988 24.9107 16.7148 24.8659 16.823C24.8211 16.9313 24.7554 17.0296 24.6725 17.1124C24.5897 17.1953 24.4914 17.261 24.3832 17.3058C24.2749 17.3506 24.1589 17.3737 24.0418 17.3737L17.3731 17.3724L17.3744 24.0411C17.3744 24.1583 17.3513 24.2743 17.3065 24.3825C17.2616 24.4907 17.1959 24.589 17.1131 24.6719C17.0303 24.7547 16.9319 24.8204 16.8237 24.8652C16.7155 24.9101 16.5995 24.9331 16.4824 24.9331C16.3652 24.9331 16.2492 24.9101 16.141 24.8652C16.0328 24.8204 15.9344 24.7547 15.8516 24.6719C15.7688 24.589 15.7031 24.4907 15.6582 24.3825C15.6134 24.2743 15.5903 24.1583 15.5903 24.0411L15.5916 17.3724L8.92292 17.3737C8.80574 17.3739 8.68968 17.3509 8.58139 17.3061C8.4731 17.2613 8.37471 17.1956 8.29185 17.1128C8.20898 17.0299 8.14328 16.9315 8.09851 16.8232C8.05373 16.7149 8.03076 16.5989 8.03091 16.4817Z" fill="white"/>
</svg>
