<svg width="60" height="60" viewBox="0 0 60 60" fill="none" xmlns="http://www.w3.org/2000/svg">
<circle cx="30" cy="30" r="30" fill="#1EA56A"/>
<path d="M17 28.5C16.1716 28.5 15.5 29.1716 15.5 30C15.5 30.8284 16.1716 31.5 17 31.5V28.5ZM43.0607 31.0607C43.6464 30.4749 43.6464 29.5251 43.0607 28.9393L33.5147 19.3934C32.9289 18.8076 31.9792 18.8076 31.3934 19.3934C30.8076 19.9792 30.8076 20.9289 31.3934 21.5147L39.8787 30L31.3934 38.4853C30.8076 39.0711 30.8076 40.0208 31.3934 40.6066C31.9792 41.1924 32.9289 41.1924 33.5147 40.6066L43.0607 31.0607ZM17 31.5L42 31.5V28.5L17 28.5V31.5Z" fill="white"/>
</svg>
