<svg width="53" height="53" viewBox="0 0 53 53" fill="none" xmlns="http://www.w3.org/2000/svg">
<circle cx="26.5" cy="26.5" r="26.5" fill="#1EA56A"/>
<path d="M25.4103 44.9974C25.3763 44.9254 25.3121 44.962 25.2642 44.9608C24.0939 44.9418 22.9262 44.871 21.761 44.7648C20.5542 44.6549 19.3525 44.4981 18.1595 44.2833C16.5661 44.0119 14.9963 43.6155 13.4647 43.0976C12.1735 42.6477 10.9239 42.1092 9.81155 41.3053C9.39523 41.0132 9.01949 40.6667 8.6942 40.2752C8.08703 39.5281 7.84643 38.7066 8.09963 37.7472C8.37172 36.6918 8.66145 35.6452 9.03306 34.6213C9.2913 33.9085 9.78888 33.3928 10.3696 32.9478C11.686 31.948 13.1409 31.1985 14.6311 30.4932C16.1213 29.7879 17.6279 29.2292 19.1459 28.6452C19.1904 28.6263 19.2398 28.6225 19.2866 28.6344C19.3335 28.6462 19.3752 28.6731 19.4054 28.7109C19.8777 29.1319 20.3249 29.5806 20.8376 29.9522C21.8089 30.6575 22.833 31.2617 24.007 31.5511C24.9788 31.7791 25.9797 31.8567 26.9748 31.7812C28.9173 31.6611 30.5448 30.7965 32.0136 29.5844C32.3575 29.3012 32.6699 28.9802 32.9949 28.6743C33.0164 28.6457 33.0469 28.6252 33.0814 28.6162C33.116 28.6073 33.1526 28.6104 33.1851 28.625C35.9569 29.5931 38.6272 30.8318 41.1577 32.3234C41.5975 32.5897 42.0117 32.8965 42.3947 33.2398C43.0611 33.8301 43.3899 34.6125 43.6544 35.4354C43.9341 36.3201 44.2238 37.2049 44.3699 38.1201C44.3699 38.1276 44.3901 38.1314 44.4002 38.1378V38.9202C44.3233 39.5345 43.9933 40.0148 43.5914 40.4546C42.9948 41.0796 42.2999 41.6018 41.5344 42.0005C40.0756 42.8044 38.5111 43.3391 36.9138 43.7701C35.6568 44.1053 34.381 44.3653 33.0932 44.5487C32.2731 44.6675 31.4556 44.7573 30.6242 44.8356C29.4779 44.9431 28.3303 44.9785 27.1789 44.981H25.8096C25.701 44.9721 25.5916 44.9785 25.4846 44.9999L25.4103 44.9974Z" fill="white"/>
<path d="M35.0419 18.1227C34.9714 21.8236 33.7167 25.0316 31.0525 27.6342C30.2266 28.4697 29.2227 29.1063 28.1161 29.496C27.3124 29.7678 26.4785 29.7488 25.6383 29.7311C24.1947 29.6945 23.0257 29.0182 21.9449 28.1499C20.2997 26.829 19.1572 25.1315 18.356 23.1951C17.6729 21.5895 17.3277 19.8596 17.342 18.1138C17.3697 15.9764 18.0827 14.083 19.3814 12.4133C20.8666 10.5097 22.8405 9.41381 25.2151 9.07127C26.6864 8.85892 28.106 9.13447 29.4665 9.7197C32.3071 10.9432 34.0241 13.1236 34.7975 16.0889C34.9511 16.7562 35.033 17.438 35.0419 18.1227Z" fill="white"/>
</svg>
