<svg width="177" height="57" viewBox="0 0 177 57" fill="none" xmlns="http://www.w3.org/2000/svg">
<path d="M52.1152 3.69968L41.8714 14.3376L28.1324 0L3.85956 24.8529H11.4374V50.4085H0V52.342H30.5716V50.4085H13.3188V22.9231H8.41815L28.1212 2.74408L44.7662 19.7804L46.1084 18.4232L43.1914 15.7171L52.1152 6.45119L63.2849 18.0894L64.6272 16.7322L52.1152 3.69968Z" fill="#0D6B38"/>
<path d="M33.3565 49.9846C33.7051 49.332 34.2285 48.7894 34.8682 48.4177C35.5079 48.046 36.2385 47.8598 36.9781 47.88H44.5633C46.7422 47.88 48.5121 49.4491 48.5121 51.3752C48.5121 53.3013 46.7422 54.8704 44.5633 54.8704H36.9781C36.314 54.8833 35.6569 54.7331 35.0644 54.4329C34.4719 54.1328 33.962 53.6919 33.5796 53.1488H31.4676C31.9066 54.2453 32.669 55.1822 33.6532 55.8351C34.6375 56.488 35.7972 56.8259 36.9781 56.8039H44.5633C47.7796 56.8039 50.3936 54.3684 50.3936 51.3752C50.3936 48.382 47.7908 45.9465 44.5633 45.9465H36.9781C34.3307 45.9465 32.0142 47.6086 31.3412 49.9883L33.3565 49.9846Z" fill="#0D6B38"/>
<path d="M34.1189 50.7917C34.1298 51.3087 34.2604 51.8161 34.5004 52.2741C34.7403 52.7322 35.0832 53.1284 35.5021 53.4316C36.0373 53.8014 36.6735 53.9975 37.324 53.9931H44.5226C45.2606 53.9981 45.9772 53.7457 46.549 53.2792C46.8858 52.9987 47.1564 52.6473 47.3415 52.25C47.5266 51.8528 47.6217 51.4196 47.6199 50.9813C47.6215 50.944 47.6144 50.9068 47.5992 50.8726C47.584 50.8385 47.5611 50.8084 47.5322 50.7846C47.5034 50.7608 47.4695 50.744 47.4331 50.7356C47.3967 50.7271 47.3588 50.7272 47.3224 50.7359C45.9913 51.052 42.8605 50.2562 42.8605 50.2562C42.154 50.0555 40.8601 50.4161 40.544 50.5091L40.373 50.5574C38.9898 50.8809 37.2311 50.3641 36.8035 50.2265C36.7031 50.1968 36.6027 50.1633 36.4986 50.1373C35.8329 49.9379 35.1204 49.9601 34.4684 50.2005C34.3558 50.2504 34.2616 50.3341 34.199 50.4401C34.1363 50.5461 34.1083 50.669 34.1189 50.7917Z" fill="url(#paint0_linear_2_3687)"/>
<path d="M31.7985 20.9532V29.6982H30.5742V22.0401H25.5021V29.6982H24.2653V20.9532H31.7985ZM37.8362 23.0146C38.4775 23.0146 39.0521 23.1561 39.5602 23.4393C40.0682 23.7225 40.4638 24.1181 40.747 24.6261C41.0385 25.1342 41.1843 25.7213 41.1843 26.3876C41.1843 27.0539 41.0385 27.6452 40.747 28.1616C40.4638 28.6697 40.0682 29.0653 39.5602 29.3484C39.0521 29.6316 38.4775 29.7732 37.8362 29.7732C37.3614 29.7732 36.9242 29.6816 36.5244 29.4984C36.133 29.3151 35.7998 29.0486 35.525 28.6988V32.1219H34.3257V23.077H35.475V24.1264C35.7415 23.76 36.0788 23.4851 36.4869 23.3019C36.895 23.1103 37.3448 23.0146 37.8362 23.0146ZM37.7362 28.7238C38.161 28.7238 38.5399 28.628 38.8731 28.4365C39.2145 28.2366 39.4811 27.9617 39.6726 27.6119C39.8725 27.2538 39.9724 26.8457 39.9724 26.3876C39.9724 25.9296 39.8725 25.5256 39.6726 25.1758C39.4811 24.8177 39.2145 24.5428 38.8731 24.3513C38.5399 24.1597 38.161 24.064 37.7362 24.064C37.3198 24.064 36.9408 24.1639 36.5994 24.3638C36.2662 24.5553 35.9997 24.826 35.7998 25.1758C35.6083 25.5256 35.5125 25.9296 35.5125 26.3876C35.5125 26.8457 35.6083 27.2538 35.7998 27.6119C35.9914 27.9617 36.2579 28.2366 36.5994 28.4365C36.9408 28.628 37.3198 28.7238 37.7362 28.7238ZM45.7626 29.7732C45.1046 29.7732 44.5133 29.6274 43.9886 29.3359C43.4639 29.0444 43.0517 28.6447 42.7518 28.1366C42.4603 27.6203 42.3146 27.0373 42.3146 26.3876C42.3146 25.738 42.4603 25.1592 42.7518 24.6511C43.0517 24.1347 43.4639 23.735 43.9886 23.4518C44.5133 23.1603 45.1046 23.0146 45.7626 23.0146C46.4206 23.0146 47.0077 23.1603 47.5241 23.4518C48.0488 23.735 48.4569 24.1347 48.7484 24.6511C49.0482 25.1592 49.1981 25.738 49.1981 26.3876C49.1981 27.0373 49.0482 27.6203 48.7484 28.1366C48.4569 28.6447 48.0488 29.0444 47.5241 29.3359C47.0077 29.6274 46.4206 29.7732 45.7626 29.7732ZM45.7626 28.7238C46.1874 28.7238 46.5663 28.628 46.8995 28.4365C47.2409 28.2366 47.5074 27.9617 47.699 27.6119C47.8906 27.2538 47.9863 26.8457 47.9863 26.3876C47.9863 25.9296 47.8906 25.5256 47.699 25.1758C47.5074 24.8177 47.2409 24.5428 46.8995 24.3513C46.5663 24.1597 46.1874 24.064 45.7626 24.064C45.3378 24.064 44.9547 24.1597 44.6133 24.3513C44.2801 24.5428 44.0136 24.8177 43.8137 25.1758C43.6222 25.5256 43.5264 25.9296 43.5264 26.3876C43.5264 26.8457 43.6222 27.2538 43.8137 27.6119C44.0136 27.9617 44.2801 28.2366 44.6133 28.4365C44.9547 28.628 45.3378 28.7238 45.7626 28.7238ZM57.6148 28.6488V31.2349H56.4905V29.6982H50.9561V31.2349H49.8193V28.6488H50.1691C50.5938 28.6239 50.8853 28.324 51.0436 27.7494C51.2018 27.1747 51.3101 26.3626 51.3684 25.3132L51.4683 23.077H56.6029V28.6488H57.6148ZM52.4678 25.4007C52.4345 26.2335 52.3637 26.9248 52.2554 27.4745C52.1554 28.0159 51.9681 28.4073 51.6932 28.6488H55.4036V24.1264H52.5302L52.4678 25.4007ZM61.5384 23.0146C62.4545 23.0146 63.1541 23.2394 63.6372 23.6892C64.1286 24.1389 64.3743 24.8094 64.3743 25.7005V29.6982H63.2374V28.8237C63.0375 29.1319 62.7502 29.3693 62.3754 29.5358C62.0089 29.6941 61.5717 29.7732 61.0637 29.7732C60.3224 29.7732 59.7269 29.5941 59.2772 29.236C58.8358 28.8779 58.615 28.4073 58.615 27.8243C58.615 27.2413 58.8274 26.7749 59.2522 26.4251C59.6769 26.067 60.3516 25.8879 61.276 25.8879H63.1749V25.6505C63.1749 25.1342 63.025 24.7386 62.7252 24.4637C62.4254 24.1889 61.984 24.0515 61.401 24.0515C61.0095 24.0515 60.6264 24.1181 60.2516 24.2513C59.8768 24.3763 59.5603 24.547 59.3022 24.7636L58.8024 23.8641C59.1439 23.5892 59.552 23.381 60.0267 23.2394C60.5015 23.0895 61.0054 23.0146 61.5384 23.0146ZM61.2635 28.8487C61.7216 28.8487 62.1172 28.7488 62.4504 28.5489C62.7835 28.3407 63.025 28.0492 63.1749 27.6744V26.7499H61.326C60.3099 26.7499 59.8019 27.0914 59.8019 27.7743C59.8019 28.1075 59.931 28.3698 60.1891 28.5614C60.4473 28.7529 60.8055 28.8487 61.2635 28.8487ZM72.5554 26.8998H71.2687V29.6982H70.0694V26.8998H68.7826L66.9586 29.6982H65.5344L67.8081 26.2752L65.7093 23.077H66.9836L68.7701 25.8754H70.0694V23.077H71.2687V25.8754H72.5679L74.3544 23.077H75.6412L73.5424 26.2877L75.8161 29.6982H74.3919L72.5554 26.8998ZM79.3749 23.0146C80.291 23.0146 80.9906 23.2394 81.4737 23.6892C81.9651 24.1389 82.2108 24.8094 82.2108 25.7005V29.6982H81.0739V28.8237C80.874 29.1319 80.5867 29.3693 80.2119 29.5358C79.8455 29.6941 79.4082 29.7732 78.9002 29.7732C78.1589 29.7732 77.5634 29.5941 77.1137 29.236C76.6723 28.8779 76.4516 28.4073 76.4516 27.8243C76.4516 27.2413 76.6639 26.7749 77.0887 26.4251C77.5135 26.067 78.1881 25.8879 79.1125 25.8879H81.0115V25.6505C81.0115 25.1342 80.8615 24.7386 80.5617 24.4637C80.2619 24.1889 79.8205 24.0515 79.2375 24.0515C78.846 24.0515 78.4629 24.1181 78.0881 24.2513C77.7133 24.3763 77.3969 24.547 77.1387 24.7636L76.639 23.8641C76.9804 23.5892 77.3885 23.381 77.8633 23.2394C78.338 23.0895 78.8419 23.0146 79.3749 23.0146ZM79.1001 28.8487C79.5581 28.8487 79.9537 28.7488 80.2869 28.5489C80.62 28.3407 80.8615 28.0492 81.0115 27.6744V26.7499H79.1625C78.1464 26.7499 77.6384 27.0914 77.6384 27.7743C77.6384 28.1075 77.7675 28.3698 78.0257 28.5614C78.2838 28.7529 78.642 28.8487 79.1001 28.8487ZM87.7254 23.077H88.9247V27.8993L92.9849 23.077H94.0718V29.6982H92.8725V24.876L88.8248 29.6982H87.7254V23.077ZM105.664 23.077L102.453 30.3604C102.17 31.035 101.837 31.5097 101.454 31.7846C101.079 32.0594 100.625 32.1968 100.092 32.1968C99.7672 32.1968 99.4507 32.1427 99.1425 32.0344C98.8427 31.9345 98.5928 31.7846 98.393 31.5847L98.9052 30.6852C99.2466 31.01 99.6423 31.1724 100.092 31.1724C100.383 31.1724 100.625 31.0933 100.817 30.935C101.016 30.7851 101.196 30.5228 101.354 30.148L101.566 29.6857L98.6428 23.077H99.8921L102.203 28.374L104.489 23.077H105.664ZM109.595 29.7732C108.92 29.7732 108.316 29.6274 107.783 29.3359C107.258 29.0444 106.846 28.6447 106.546 28.1366C106.246 27.6203 106.097 27.0373 106.097 26.3876C106.097 25.738 106.246 25.1592 106.546 24.6511C106.846 24.1347 107.258 23.735 107.783 23.4518C108.316 23.1603 108.92 23.0146 109.595 23.0146C110.194 23.0146 110.727 23.1353 111.194 23.3768C111.668 23.6184 112.035 23.9682 112.293 24.4262L111.381 25.0134C111.173 24.6969 110.915 24.4596 110.607 24.3013C110.298 24.1431 109.957 24.064 109.582 24.064C109.149 24.064 108.758 24.1597 108.408 24.3513C108.066 24.5428 107.796 24.8177 107.596 25.1758C107.404 25.5256 107.308 25.9296 107.308 26.3876C107.308 26.854 107.404 27.2663 107.596 27.6244C107.796 27.9742 108.066 28.2449 108.408 28.4365C108.758 28.628 109.149 28.7238 109.582 28.7238C109.957 28.7238 110.298 28.6447 110.607 28.4864C110.915 28.3282 111.173 28.0908 111.381 27.7743L112.293 28.349C112.035 28.8071 111.668 29.161 111.194 29.4109C110.727 29.6524 110.194 29.7732 109.595 29.7732ZM118.695 24.1264H116.271V29.6982H115.072V24.1264H112.649V23.077H118.695V24.1264ZM122.283 23.0146C123.199 23.0146 123.898 23.2394 124.381 23.6892C124.873 24.1389 125.118 24.8094 125.118 25.7005V29.6982H123.982V28.8237C123.782 29.1319 123.494 29.3693 123.12 29.5358C122.753 29.6941 122.316 29.7732 121.808 29.7732C121.067 29.7732 120.471 29.5941 120.021 29.236C119.58 28.8779 119.359 28.4073 119.359 27.8243C119.359 27.2413 119.572 26.7749 119.996 26.4251C120.421 26.067 121.096 25.8879 122.02 25.8879H123.919V25.6505C123.919 25.1342 123.769 24.7386 123.469 24.4637C123.17 24.1889 122.728 24.0515 122.145 24.0515C121.754 24.0515 121.371 24.1181 120.996 24.2513C120.621 24.3763 120.305 24.547 120.046 24.7636L119.547 23.8641C119.888 23.5892 120.296 23.381 120.771 23.2394C121.246 23.0895 121.75 23.0146 122.283 23.0146ZM122.008 28.8487C122.466 28.8487 122.861 28.7488 123.195 28.5489C123.528 28.3407 123.769 28.0492 123.919 27.6744V26.7499H122.07C121.054 26.7499 120.546 27.0914 120.546 27.7743C120.546 28.1075 120.675 28.3698 120.933 28.5614C121.192 28.7529 121.55 28.8487 122.008 28.8487ZM127.278 23.077H128.477V25.8879H132.25V23.077H133.45V29.6982H132.25V26.9248H128.477V29.6982H127.278V23.077ZM138.617 29.7732C137.959 29.7732 137.368 29.6274 136.843 29.3359C136.319 29.0444 135.906 28.6447 135.607 28.1366C135.315 27.6203 135.169 27.0373 135.169 26.3876C135.169 25.738 135.315 25.1592 135.607 24.6511C135.906 24.1347 136.319 23.735 136.843 23.4518C137.368 23.1603 137.959 23.0146 138.617 23.0146C139.275 23.0146 139.863 23.1603 140.379 23.4518C140.904 23.735 141.312 24.1347 141.603 24.6511C141.903 25.1592 142.053 25.738 142.053 26.3876C142.053 27.0373 141.903 27.6203 141.603 28.1366C141.312 28.6447 140.904 29.0444 140.379 29.3359C139.863 29.6274 139.275 29.7732 138.617 29.7732ZM138.617 28.7238C139.042 28.7238 139.421 28.628 139.754 28.4365C140.096 28.2366 140.362 27.9617 140.554 27.6119C140.745 27.2538 140.841 26.8457 140.841 26.3876C140.841 25.9296 140.745 25.5256 140.554 25.1758C140.362 24.8177 140.096 24.5428 139.754 24.3513C139.421 24.1597 139.042 24.064 138.617 24.064C138.193 24.064 137.81 24.1597 137.468 24.3513C137.135 24.5428 136.868 24.8177 136.669 25.1758C136.477 25.5256 136.381 25.9296 136.381 26.3876C136.381 26.8457 136.477 27.2538 136.669 27.6119C136.868 27.9617 137.135 28.2366 137.468 28.4365C137.81 28.628 138.193 28.7238 138.617 28.7238ZM148.295 26.2627C149.153 26.4792 149.581 27.0164 149.581 27.8743C149.581 28.4573 149.361 28.907 148.919 29.2235C148.486 29.54 147.837 29.6982 146.97 29.6982H143.785V23.077H146.858C147.641 23.077 148.253 23.2269 148.694 23.5268C149.136 23.8183 149.357 24.2347 149.357 24.776C149.357 25.1258 149.261 25.4298 149.069 25.688C148.886 25.9379 148.628 26.1294 148.295 26.2627ZM144.959 25.9254H146.758C147.216 25.9254 147.562 25.8421 147.795 25.6755C148.037 25.509 148.157 25.2674 148.157 24.9509C148.157 24.318 147.691 24.0015 146.758 24.0015H144.959V25.9254ZM146.883 28.7738C147.383 28.7738 147.758 28.6946 148.007 28.5364C148.257 28.3782 148.382 28.1325 148.382 27.7993C148.382 27.4579 148.266 27.2038 148.032 27.0373C147.807 26.8707 147.449 26.7874 146.958 26.7874H144.959V28.7738H146.883ZM154.032 26.8998H152.658V29.6982H151.459V23.077H152.658V25.8754H154.057L156.206 23.077H157.493L154.982 26.2627L157.668 29.6982H156.256L154.032 26.8998ZM161.164 23.0146C162.08 23.0146 162.78 23.2394 163.263 23.6892C163.754 24.1389 164 24.8094 164 25.7005V29.6982H162.863V28.8237C162.663 29.1319 162.376 29.3693 162.001 29.5358C161.635 29.6941 161.198 29.7732 160.689 29.7732C159.948 29.7732 159.353 29.5941 158.903 29.236C158.462 28.8779 158.241 28.4073 158.241 27.8243C158.241 27.2413 158.453 26.7749 158.878 26.4251C159.303 26.067 159.977 25.8879 160.902 25.8879H162.801V25.6505C162.801 25.1342 162.651 24.7386 162.351 24.4637C162.051 24.1889 161.61 24.0515 161.027 24.0515C160.635 24.0515 160.252 24.1181 159.877 24.2513C159.503 24.3763 159.186 24.547 158.928 24.7636L158.428 23.8641C158.77 23.5892 159.178 23.381 159.653 23.2394C160.127 23.0895 160.631 23.0146 161.164 23.0146ZM160.889 28.8487C161.347 28.8487 161.743 28.7488 162.076 28.5489C162.409 28.3407 162.651 28.0492 162.801 27.6744V26.7499H160.952C159.936 26.7499 159.428 27.0914 159.428 27.7743C159.428 28.1075 159.557 28.3698 159.815 28.5614C160.073 28.7529 160.431 28.8487 160.889 28.8487Z" fill="white"/>
<path d="M46.8825 42.6399C45.9914 42.6399 45.1835 42.4483 44.4589 42.0652C43.7427 41.6738 43.1763 41.1366 42.7599 40.4537C42.3518 39.7624 42.1477 38.9837 42.1477 38.1175C42.1477 37.2513 42.3518 36.4768 42.7599 35.7938C43.1763 35.1025 43.7427 34.5653 44.4589 34.1822C45.1835 33.7908 45.9956 33.5951 46.895 33.5951C47.6529 33.5951 48.3359 33.7283 48.9439 33.9948C49.5602 34.2613 50.0766 34.6445 50.493 35.1442L49.1937 36.3435C48.6024 35.6605 47.8695 35.3191 46.995 35.3191C46.4536 35.3191 45.9706 35.4398 45.5458 35.6814C45.1211 35.9146 44.7879 36.2436 44.5464 36.6683C44.3132 37.0931 44.1966 37.5761 44.1966 38.1175C44.1966 38.6588 44.3132 39.1419 44.5464 39.5667C44.7879 39.9914 45.1211 40.3246 45.5458 40.5661C45.9706 40.7993 46.4536 40.9159 46.995 40.9159C47.8695 40.9159 48.6024 40.5703 49.1937 39.879L50.493 41.0783C50.0766 41.5863 49.5602 41.9736 48.9439 42.2401C48.3276 42.5066 47.6404 42.6399 46.8825 42.6399ZM58.5832 40.8659V42.49H51.8121V33.745H58.4208V35.369H53.8234V37.268H57.8836V38.8421H53.8234V40.8659H58.5832ZM68.1884 33.745V42.49H66.177V35.394H62.2293V42.49H60.2179V33.745H68.1884ZM77.0399 35.394H74.2415V42.49H72.2426V35.394H69.4567V33.745H77.0399V35.394ZM78.3106 33.745H80.322V39.4417L84.4946 33.745H86.3935V42.49H84.3947V36.8057L80.222 42.49H78.3106V33.745ZM91.9565 38.967H90.5573V42.49H88.5459V33.745H90.5573V37.2805H92.0064L94.3051 33.745H96.4414L93.5805 37.9676L96.5289 42.49H94.2302L91.9565 38.967ZM101.613 42.6399C100.705 42.6399 99.8848 42.4442 99.1519 42.0527C98.4273 41.6613 97.8568 41.1241 97.4404 40.4412C97.0322 39.7499 96.8282 38.9753 96.8282 38.1175C96.8282 37.2596 97.0322 36.4892 97.4404 35.8063C97.8568 35.115 98.4273 34.5737 99.1519 34.1822C99.8848 33.7908 100.705 33.5951 101.613 33.5951C102.521 33.5951 103.337 33.7908 104.062 34.1822C104.786 34.5737 105.357 35.115 105.773 35.8063C106.19 36.4892 106.398 37.2596 106.398 38.1175C106.398 38.9753 106.19 39.7499 105.773 40.4412C105.357 41.1241 104.786 41.6613 104.062 42.0527C103.337 42.4442 102.521 42.6399 101.613 42.6399ZM101.613 40.9159C102.129 40.9159 102.596 40.7993 103.012 40.5661C103.429 40.3246 103.753 39.9914 103.987 39.5667C104.228 39.1419 104.349 38.6588 104.349 38.1175C104.349 37.5761 104.228 37.0931 103.987 36.6683C103.753 36.2436 103.429 35.9146 103.012 35.6814C102.596 35.4398 102.129 35.3191 101.613 35.3191C101.097 35.3191 100.63 35.4398 100.214 35.6814C99.7973 35.9146 99.4684 36.2436 99.2268 36.6683C98.9936 37.0931 98.877 37.5761 98.877 38.1175C98.877 38.6588 98.9936 39.1419 99.2268 39.5667C99.4684 39.9914 99.7973 40.3246 100.214 40.5661C100.63 40.7993 101.097 40.9159 101.613 40.9159ZM114.016 37.9301C114.549 38.0883 114.957 38.3465 115.24 38.7046C115.523 39.0628 115.665 39.5042 115.665 40.0289C115.665 40.8035 115.369 41.4073 114.778 41.8404C114.195 42.2734 113.358 42.49 112.267 42.49H107.957V33.745H112.03C113.046 33.745 113.837 33.9407 114.403 34.3321C114.969 34.7236 115.253 35.2816 115.253 36.0062C115.253 36.4393 115.144 36.8224 114.928 37.1555C114.711 37.4803 114.407 37.7385 114.016 37.9301ZM109.968 37.3679H111.855C112.296 37.3679 112.629 37.2805 112.854 37.1056C113.079 36.9223 113.191 36.6558 113.191 36.306C113.191 35.9645 113.075 35.7022 112.842 35.519C112.617 35.3357 112.288 35.2441 111.855 35.2441H109.968V37.3679ZM112.192 40.9908C113.141 40.9908 113.616 40.6161 113.616 39.8665C113.616 39.1419 113.141 38.7796 112.192 38.7796H109.968V40.9908H112.192ZM126.663 37.9801H128.512V41.528C128.037 41.8862 127.487 42.161 126.863 42.3526C126.238 42.5441 125.609 42.6399 124.976 42.6399C124.068 42.6399 123.252 42.4483 122.528 42.0652C121.803 41.6738 121.232 41.1366 120.816 40.4537C120.408 39.7624 120.204 38.9837 120.204 38.1175C120.204 37.2513 120.408 36.4768 120.816 35.7938C121.232 35.1025 121.807 34.5653 122.54 34.1822C123.273 33.7908 124.097 33.5951 125.014 33.5951C125.78 33.5951 126.475 33.7242 127.1 33.9823C127.725 34.2405 128.249 34.6153 128.674 35.1067L127.375 36.306C126.75 35.6481 125.996 35.3191 125.114 35.3191C124.556 35.3191 124.06 35.4357 123.627 35.6689C123.194 35.9021 122.856 36.2311 122.615 36.6558C122.373 37.0806 122.253 37.5678 122.253 38.1175C122.253 38.6588 122.373 39.1419 122.615 39.5667C122.856 39.9914 123.19 40.3246 123.614 40.5661C124.047 40.7993 124.539 40.9159 125.089 40.9159C125.672 40.9159 126.196 40.791 126.663 40.5411V37.9801ZM137.163 40.8659V42.49H130.392V33.745H137V35.369H132.403V37.268H136.463V38.8421H132.403V40.8659H137.163ZM146.793 33.745V42.49H145.132L140.772 37.1805V42.49H138.773V33.745H140.447L144.795 39.0544V33.745H146.793ZM155.634 40.8659V42.49H148.863V33.745H155.471V35.369H150.874V37.268H154.934V38.8421H150.874V40.8659H155.634ZM160.117 42.6399C159.426 42.6399 158.756 42.5483 158.106 42.3651C157.465 42.1735 156.948 41.9278 156.557 41.628L157.244 40.1038C157.619 40.3787 158.064 40.5994 158.581 40.766C159.097 40.9325 159.613 41.0158 160.13 41.0158C160.704 41.0158 161.129 40.9325 161.404 40.766C161.679 40.5911 161.816 40.362 161.816 40.0789C161.816 39.8706 161.733 39.6999 161.566 39.5667C161.408 39.4251 161.2 39.3126 160.942 39.2293C160.692 39.1461 160.351 39.0544 159.917 38.9545C159.251 38.7963 158.706 38.638 158.281 38.4798C157.856 38.3215 157.49 38.0675 157.181 37.7177C156.882 37.3679 156.732 36.9015 156.732 36.3185C156.732 35.8105 156.869 35.3524 157.144 34.9443C157.419 34.5279 157.831 34.1989 158.381 33.9574C158.939 33.7158 159.618 33.5951 160.417 33.5951C160.975 33.5951 161.521 33.6617 162.054 33.7949C162.587 33.9282 163.053 34.1198 163.453 34.3696L162.828 35.9062C162.02 35.4482 161.213 35.2191 160.405 35.2191C159.838 35.2191 159.418 35.3107 159.143 35.494C158.876 35.6772 158.743 35.9187 158.743 36.2186C158.743 36.5184 158.897 36.7433 159.205 36.8932C159.522 37.0348 160.001 37.1764 160.642 37.3179C161.308 37.4762 161.854 37.6344 162.279 37.7927C162.703 37.9509 163.066 38.2008 163.365 38.5422C163.674 38.8837 163.828 39.3459 163.828 39.9289C163.828 40.4287 163.686 40.8867 163.403 41.3032C163.128 41.7113 162.712 42.0361 162.154 42.2776C161.596 42.5191 160.917 42.6399 160.117 42.6399ZM165.211 33.745H167.234V42.49H165.211V33.745ZM172.183 42.6399C171.492 42.6399 170.821 42.5483 170.172 42.3651C169.531 42.1735 169.014 41.9278 168.623 41.628L169.31 40.1038C169.685 40.3787 170.13 40.5994 170.647 40.766C171.163 40.9325 171.679 41.0158 172.196 41.0158C172.77 41.0158 173.195 40.9325 173.47 40.766C173.745 40.5911 173.882 40.362 173.882 40.0789C173.882 39.8706 173.799 39.6999 173.632 39.5667C173.474 39.4251 173.266 39.3126 173.008 39.2293C172.758 39.1461 172.416 39.0544 171.983 38.9545C171.317 38.7963 170.772 38.638 170.347 38.4798C169.922 38.3215 169.556 38.0675 169.247 37.7177C168.948 37.3679 168.798 36.9015 168.798 36.3185C168.798 35.8105 168.935 35.3524 169.21 34.9443C169.485 34.5279 169.897 34.1989 170.447 33.9574C171.005 33.7158 171.683 33.5951 172.483 33.5951C173.041 33.5951 173.587 33.6617 174.12 33.7949C174.653 33.9282 175.119 34.1198 175.519 34.3696L174.894 35.9062C174.086 35.4482 173.278 35.2191 172.471 35.2191C171.904 35.2191 171.484 35.3107 171.209 35.494C170.942 35.6772 170.809 35.9187 170.809 36.2186C170.809 36.5184 170.963 36.7433 171.271 36.8932C171.588 37.0348 172.067 37.1764 172.708 37.3179C173.374 37.4762 173.92 37.6344 174.344 37.7927C174.769 37.9509 175.132 38.2008 175.431 38.5422C175.74 38.8837 175.894 39.3459 175.894 39.9289C175.894 40.4287 175.752 40.8867 175.469 41.3032C175.194 41.7113 174.778 42.0361 174.22 42.2776C173.662 42.5191 172.983 42.6399 172.183 42.6399Z" fill="#0F6B39"/>
<defs>
<linearGradient id="paint0_linear_2_3687" x1="40.2317" y1="54.5583" x2="41.1055" y2="49.6204" gradientUnits="userSpaceOnUse">
<stop stop-color="#99BE22"/>
<stop offset="1" stop-color="#0D6B38"/>
</linearGradient>
</defs>
</svg>
